<?xml version="1.0" standalone="no"?>
<!DOCTYPE svg PUBLIC "-//W3C//DTD SVG 20010904//EN"
 "http://www.w3.org/TR/2001/REC-SVG-20010904/DTD/svg10.dtd">
<svg version="1.0" xmlns="http://www.w3.org/2000/svg"
 width="306.000000pt" height="306.000000pt" viewBox="0 0 306.000000 306.000000"
 preserveAspectRatio="xMidYMid meet">
<metadata>
Created by potrace 1.14, written by Peter Selinger 2001-2017
</metadata>
<g transform="translate(0.000000,306.000000) scale(0.100000,-0.100000)"
fill="#000000" stroke="none">
<path d="M1980 2383 l0 -468 465 465 c256 256 465 466 465 467 0 2 -209 3
-465 3 l-465 0 0 -467z"/>
<path d="M1467 2382 c-251 -251 -457 -459 -457 -462 0 -3 207 -5 460 -5 l460
0 0 55 c3 254 1 863 -2 866 -2 2 -210 -203 -461 -454z"/>
<path d="M2647 2493 c-116 -118 -214 -217 -217 -220 -8 -10 3 -3 265 157 344
210 364 224 341 228 -11 2 -55 14 -98 27 l-78 23 -213 -215z"/>
<path d="M420 2285 l0 -365 263 0 262 0 113 113 113 113 -34 30 c-19 16 -77
68 -129 117 -53 48 -104 95 -115 105 -12 9 -60 54 -109 98 -49 45 -107 98
-129 118 l-40 36 -97 0 -98 0 0 -365z"/>
<path d="M222 2506 c-75 -74 -154 -150 -174 -169 -21 -20 -38 -38 -38 -41 0
-3 81 -6 180 -6 l180 0 0 175 c0 96 -3 175 -6 175 -3 0 -67 -60 -142 -134z"/>
<path d="M501 1813 c102 -95 324 -301 389 -363 21 -19 91 -84 156 -145 65 -60
130 -121 144 -135 30 -28 100 -93 280 -260 68 -63 134 -126 147 -139 13 -13
25 -22 27 -20 1 2 29 110 60 239 31 129 66 271 77 315 12 44 22 88 25 99 5 25
104 427 110 449 5 16 -35 17 -736 17 l-741 0 62 -57z"/>
<path d="M1940 1703 c-8 -38 -15 -72 -16 -78 -1 -5 -21 -84 -44 -175 -23 -91
-44 -176 -47 -190 -2 -14 -33 -144 -69 -288 -104 -424 -115 -475 -105 -481 4
-3 68 -62 141 -131 73 -69 139 -129 146 -133 12 -7 14 110 14 768 0 426 -1
775 -3 775 -2 0 -10 -30 -17 -67z"/>
</g>
</svg>
